<mxfile host="app.diagrams.net" modified="2024-04-18T09:45:01.993Z" agent="Mozilla/5.0 (Macintosh; Intel Mac OS X 10_15_7) AppleWebKit/537.36 (KHTML, like Gecko) Chrome/119.0.0.0 Safari/537.36" etag="dPvF7GzgAGj8rV8HhiJH" version="24.2.5" type="github">
  <diagram id="C5RBs43oDa-KdzZeNtuy" name="Page-1">
    <mxGraphModel dx="3032" dy="1557" grid="1" gridSize="10" guides="1" tooltips="1" connect="1" arrows="1" fold="1" page="1" pageScale="1" pageWidth="827" pageHeight="1169" math="0" shadow="0">
      <root>
        <mxCell id="WIyWlLk6GJQsqaUBKTNV-0" />
        <mxCell id="WIyWlLk6GJQsqaUBKTNV-1" parent="WIyWlLk6GJQsqaUBKTNV-0" />
        <mxCell id="YgNDyVswAlzfiliHHgwm-14" value="" style="rounded=0;whiteSpace=wrap;html=1;" vertex="1" parent="WIyWlLk6GJQsqaUBKTNV-1">
          <mxGeometry x="40" y="40" width="770" height="450" as="geometry" />
        </mxCell>
        <mxCell id="zkfFHV4jXpPFQw0GAbJ--0" value="Device" style="swimlane;fontStyle=2;align=center;verticalAlign=top;childLayout=stackLayout;horizontal=1;startSize=26;horizontalStack=0;resizeParent=1;resizeLast=0;collapsible=1;marginBottom=0;rounded=0;shadow=0;strokeWidth=1;" parent="WIyWlLk6GJQsqaUBKTNV-1" vertex="1">
          <mxGeometry x="120" y="100" width="280" height="280" as="geometry">
            <mxRectangle x="230" y="140" width="160" height="26" as="alternateBounds" />
          </mxGeometry>
        </mxCell>
        <mxCell id="zkfFHV4jXpPFQw0GAbJ--1" value="id" style="text;align=left;verticalAlign=top;spacingLeft=4;spacingRight=4;overflow=hidden;rotatable=0;points=[[0,0.5],[1,0.5]];portConstraint=eastwest;" parent="zkfFHV4jXpPFQw0GAbJ--0" vertex="1">
          <mxGeometry y="26" width="280" height="26" as="geometry" />
        </mxCell>
        <mxCell id="zkfFHV4jXpPFQw0GAbJ--2" value="Name" style="text;align=left;verticalAlign=top;spacingLeft=4;spacingRight=4;overflow=hidden;rotatable=0;points=[[0,0.5],[1,0.5]];portConstraint=eastwest;rounded=0;shadow=0;html=0;" parent="zkfFHV4jXpPFQw0GAbJ--0" vertex="1">
          <mxGeometry y="52" width="280" height="26" as="geometry" />
        </mxCell>
        <mxCell id="zkfFHV4jXpPFQw0GAbJ--4" value="" style="line;html=1;strokeWidth=1;align=left;verticalAlign=middle;spacingTop=-1;spacingLeft=3;spacingRight=3;rotatable=0;labelPosition=right;points=[];portConstraint=eastwest;" parent="zkfFHV4jXpPFQw0GAbJ--0" vertex="1">
          <mxGeometry y="78" width="280" height="8" as="geometry" />
        </mxCell>
        <mxCell id="zkfFHV4jXpPFQw0GAbJ--5" value="adddevice public()&#xa;removedevice ownlyOwner public()&#xa;createAction onlyOwner public()Â &#xa;sendFundsCreditForWholeDevice public(amount)&#xa;" style="text;align=left;verticalAlign=top;spacingLeft=4;spacingRight=4;overflow=hidden;rotatable=0;points=[[0,0.5],[1,0.5]];portConstraint=eastwest;" parent="zkfFHV4jXpPFQw0GAbJ--0" vertex="1">
          <mxGeometry y="86" width="280" height="164" as="geometry" />
        </mxCell>
        <mxCell id="YgNDyVswAlzfiliHHgwm-0" style="edgeStyle=orthogonalEdgeStyle;rounded=0;orthogonalLoop=1;jettySize=auto;html=1;" edge="1" parent="WIyWlLk6GJQsqaUBKTNV-1" source="zkfFHV4jXpPFQw0GAbJ--17" target="zkfFHV4jXpPFQw0GAbJ--5">
          <mxGeometry relative="1" as="geometry">
            <Array as="points">
              <mxPoint x="324" y="265" />
              <mxPoint x="324" y="265" />
            </Array>
          </mxGeometry>
        </mxCell>
        <mxCell id="YgNDyVswAlzfiliHHgwm-2" value="*" style="edgeLabel;html=1;align=center;verticalAlign=middle;resizable=0;points=[];" vertex="1" connectable="0" parent="YgNDyVswAlzfiliHHgwm-0">
          <mxGeometry x="-0.8342" y="-2" relative="1" as="geometry">
            <mxPoint y="14" as="offset" />
          </mxGeometry>
        </mxCell>
        <mxCell id="YgNDyVswAlzfiliHHgwm-3" value="1" style="edgeLabel;html=1;align=center;verticalAlign=middle;resizable=0;points=[];" vertex="1" connectable="0" parent="YgNDyVswAlzfiliHHgwm-0">
          <mxGeometry x="0.8671" relative="1" as="geometry">
            <mxPoint as="offset" />
          </mxGeometry>
        </mxCell>
        <mxCell id="zkfFHV4jXpPFQw0GAbJ--17" value="Action" style="swimlane;fontStyle=0;align=center;verticalAlign=top;childLayout=stackLayout;horizontal=1;startSize=26;horizontalStack=0;resizeParent=1;resizeLast=0;collapsible=1;marginBottom=0;rounded=0;shadow=0;strokeWidth=1;" parent="WIyWlLk6GJQsqaUBKTNV-1" vertex="1">
          <mxGeometry x="470" y="90" width="280" height="330" as="geometry">
            <mxRectangle x="550" y="140" width="160" height="26" as="alternateBounds" />
          </mxGeometry>
        </mxCell>
        <mxCell id="zkfFHV4jXpPFQw0GAbJ--18" value="id" style="text;align=left;verticalAlign=top;spacingLeft=4;spacingRight=4;overflow=hidden;rotatable=0;points=[[0,0.5],[1,0.5]];portConstraint=eastwest;" parent="zkfFHV4jXpPFQw0GAbJ--17" vertex="1">
          <mxGeometry y="26" width="280" height="26" as="geometry" />
        </mxCell>
        <mxCell id="zkfFHV4jXpPFQw0GAbJ--19" value="Name" style="text;align=left;verticalAlign=top;spacingLeft=4;spacingRight=4;overflow=hidden;rotatable=0;points=[[0,0.5],[1,0.5]];portConstraint=eastwest;rounded=0;shadow=0;html=0;" parent="zkfFHV4jXpPFQw0GAbJ--17" vertex="1">
          <mxGeometry y="52" width="280" height="26" as="geometry" />
        </mxCell>
        <mxCell id="zkfFHV4jXpPFQw0GAbJ--20" value="unit" style="text;align=left;verticalAlign=top;spacingLeft=4;spacingRight=4;overflow=hidden;rotatable=0;points=[[0,0.5],[1,0.5]];portConstraint=eastwest;rounded=0;shadow=0;html=0;" parent="zkfFHV4jXpPFQw0GAbJ--17" vertex="1">
          <mxGeometry y="78" width="280" height="26" as="geometry" />
        </mxCell>
        <mxCell id="zkfFHV4jXpPFQw0GAbJ--21" value="pricePerUnit" style="text;align=left;verticalAlign=top;spacingLeft=4;spacingRight=4;overflow=hidden;rotatable=0;points=[[0,0.5],[1,0.5]];portConstraint=eastwest;rounded=0;shadow=0;html=0;" parent="zkfFHV4jXpPFQw0GAbJ--17" vertex="1">
          <mxGeometry y="104" width="280" height="26" as="geometry" />
        </mxCell>
        <mxCell id="zkfFHV4jXpPFQw0GAbJ--22" value="DeviceId" style="text;align=left;verticalAlign=top;spacingLeft=4;spacingRight=4;overflow=hidden;rotatable=0;points=[[0,0.5],[1,0.5]];portConstraint=eastwest;rounded=0;shadow=0;html=0;" parent="zkfFHV4jXpPFQw0GAbJ--17" vertex="1">
          <mxGeometry y="130" width="280" height="26" as="geometry" />
        </mxCell>
        <mxCell id="zkfFHV4jXpPFQw0GAbJ--23" value="" style="line;html=1;strokeWidth=1;align=left;verticalAlign=middle;spacingTop=-1;spacingLeft=3;spacingRight=3;rotatable=0;labelPosition=right;points=[];portConstraint=eastwest;" parent="zkfFHV4jXpPFQw0GAbJ--17" vertex="1">
          <mxGeometry y="156" width="280" height="8" as="geometry" />
        </mxCell>
        <mxCell id="zkfFHV4jXpPFQw0GAbJ--24" value="setPrice onlyOwner public(price)&#xa;getPrice public()&#xa;sendFundsCredit public(amount)&#xa;recieveFunds onlyOwner public(amount)&#xa;checkIotConfirmation public(mqtt message)&#xa;withdrawFromUser private ()&#xa;checkForEnoughFunds&#xa;" style="text;align=left;verticalAlign=top;spacingLeft=4;spacingRight=4;overflow=hidden;rotatable=0;points=[[0,0.5],[1,0.5]];portConstraint=eastwest;" parent="zkfFHV4jXpPFQw0GAbJ--17" vertex="1">
          <mxGeometry y="164" width="280" height="166" as="geometry" />
        </mxCell>
        <mxCell id="YgNDyVswAlzfiliHHgwm-9" value="mqtt message:&lt;div&gt;{&lt;/div&gt;&lt;div&gt;device_id:1,&lt;/div&gt;&lt;div&gt;action_id:1,&lt;/div&gt;&lt;div&gt;amount_in_unit:1hr,&lt;/div&gt;&lt;div&gt;&lt;br&gt;&lt;/div&gt;&lt;div&gt;&lt;br&gt;&lt;/div&gt;&lt;div&gt;}&lt;/div&gt;" style="rounded=0;whiteSpace=wrap;html=1;" vertex="1" parent="WIyWlLk6GJQsqaUBKTNV-1">
          <mxGeometry x="860" y="40" width="270" height="150" as="geometry" />
        </mxCell>
        <mxCell id="YgNDyVswAlzfiliHHgwm-12" value="" style="rounded=0;whiteSpace=wrap;html=1;" vertex="1" parent="WIyWlLk6GJQsqaUBKTNV-1">
          <mxGeometry x="40" y="530" width="770" height="410" as="geometry" />
        </mxCell>
        <mxCell id="YgNDyVswAlzfiliHHgwm-13" value="contract" style="shape=cylinder3;whiteSpace=wrap;html=1;boundedLbl=1;backgroundOutline=1;size=15;" vertex="1" parent="WIyWlLk6GJQsqaUBKTNV-1">
          <mxGeometry x="470" y="570" width="60" height="80" as="geometry" />
        </mxCell>
        <mxCell id="YgNDyVswAlzfiliHHgwm-19" value="Smart Contract Struktur" style="text;html=1;align=center;verticalAlign=middle;whiteSpace=wrap;rounded=0;" vertex="1" parent="WIyWlLk6GJQsqaUBKTNV-1">
          <mxGeometry x="290" y="50" width="250" height="30" as="geometry" />
        </mxCell>
        <mxCell id="YgNDyVswAlzfiliHHgwm-36" style="edgeStyle=orthogonalEdgeStyle;rounded=0;orthogonalLoop=1;jettySize=auto;html=1;" edge="1" parent="WIyWlLk6GJQsqaUBKTNV-1" source="YgNDyVswAlzfiliHHgwm-38" target="YgNDyVswAlzfiliHHgwm-13">
          <mxGeometry relative="1" as="geometry">
            <mxPoint x="530" y="630" as="sourcePoint" />
          </mxGeometry>
        </mxCell>
        <mxCell id="YgNDyVswAlzfiliHHgwm-37" value="call contract:&lt;br&gt;adddevice() +&lt;div&gt;addAction()&lt;/div&gt;" style="edgeLabel;html=1;align=center;verticalAlign=middle;resizable=0;points=[];" vertex="1" connectable="0" parent="YgNDyVswAlzfiliHHgwm-36">
          <mxGeometry x="0.0679" y="-2" relative="1" as="geometry">
            <mxPoint as="offset" />
          </mxGeometry>
        </mxCell>
        <mxCell id="YgNDyVswAlzfiliHHgwm-38" value="DeviceOwner" style="shape=umlActor;verticalLabelPosition=bottom;verticalAlign=top;html=1;outlineConnect=0;" vertex="1" parent="WIyWlLk6GJQsqaUBKTNV-1">
          <mxGeometry x="110" y="580" width="30" height="60" as="geometry" />
        </mxCell>
        <mxCell id="YgNDyVswAlzfiliHHgwm-39" value="" style="rounded=0;whiteSpace=wrap;html=1;" vertex="1" parent="WIyWlLk6GJQsqaUBKTNV-1">
          <mxGeometry x="40" y="1010" width="770" height="250" as="geometry" />
        </mxCell>
        <mxCell id="YgNDyVswAlzfiliHHgwm-56" style="edgeStyle=orthogonalEdgeStyle;rounded=0;orthogonalLoop=1;jettySize=auto;html=1;" edge="1" parent="WIyWlLk6GJQsqaUBKTNV-1" source="YgNDyVswAlzfiliHHgwm-55" target="YgNDyVswAlzfiliHHgwm-13">
          <mxGeometry relative="1" as="geometry" />
        </mxCell>
        <mxCell id="YgNDyVswAlzfiliHHgwm-57" value="subscribe for Event&amp;nbsp;&lt;br&gt;deviceAdded() +&lt;br&gt;actionAdded()" style="edgeLabel;html=1;align=center;verticalAlign=middle;resizable=0;points=[];" vertex="1" connectable="0" parent="YgNDyVswAlzfiliHHgwm-56">
          <mxGeometry x="0.0412" y="3" relative="1" as="geometry">
            <mxPoint as="offset" />
          </mxGeometry>
        </mxCell>
        <mxCell id="YgNDyVswAlzfiliHHgwm-55" value="Internes Web3 Gateway" style="image;html=1;image=img/lib/clip_art/computers/Server_128x128.png" vertex="1" parent="WIyWlLk6GJQsqaUBKTNV-1">
          <mxGeometry x="460" y="800" width="80" height="80" as="geometry" />
        </mxCell>
        <mxCell id="YgNDyVswAlzfiliHHgwm-69" value="" style="rounded=0;whiteSpace=wrap;html=1;" vertex="1" parent="WIyWlLk6GJQsqaUBKTNV-1">
          <mxGeometry x="40" y="1304" width="770" height="450" as="geometry" />
        </mxCell>
        <mxCell id="YgNDyVswAlzfiliHHgwm-70" value="contract" style="shape=cylinder3;whiteSpace=wrap;html=1;boundedLbl=1;backgroundOutline=1;size=15;" vertex="1" parent="WIyWlLk6GJQsqaUBKTNV-1">
          <mxGeometry x="730" y="1404" width="60" height="80" as="geometry" />
        </mxCell>
        <mxCell id="YgNDyVswAlzfiliHHgwm-71" style="edgeStyle=orthogonalEdgeStyle;rounded=0;orthogonalLoop=1;jettySize=auto;html=1;" edge="1" parent="WIyWlLk6GJQsqaUBKTNV-1" source="YgNDyVswAlzfiliHHgwm-73" target="YgNDyVswAlzfiliHHgwm-78">
          <mxGeometry relative="1" as="geometry">
            <mxPoint x="240" y="1594" as="targetPoint" />
          </mxGeometry>
        </mxCell>
        <mxCell id="YgNDyVswAlzfiliHHgwm-72" value="send mqtt confirmation to:&lt;div&gt;pepper / payment&lt;/div&gt;" style="edgeLabel;html=1;align=center;verticalAlign=middle;resizable=0;points=[];" vertex="1" connectable="0" parent="YgNDyVswAlzfiliHHgwm-71">
          <mxGeometry x="0.0566" relative="1" as="geometry">
            <mxPoint as="offset" />
          </mxGeometry>
        </mxCell>
        <mxCell id="YgNDyVswAlzfiliHHgwm-73" value="Pepper" style="shape=umlActor;verticalLabelPosition=bottom;verticalAlign=top;html=1;outlineConnect=0;" vertex="1" parent="WIyWlLk6GJQsqaUBKTNV-1">
          <mxGeometry x="120" y="1394" width="30" height="60" as="geometry" />
        </mxCell>
        <mxCell id="YgNDyVswAlzfiliHHgwm-74" style="edgeStyle=orthogonalEdgeStyle;rounded=0;orthogonalLoop=1;jettySize=auto;html=1;entryX=1;entryY=0.5;entryDx=0;entryDy=0;" edge="1" parent="WIyWlLk6GJQsqaUBKTNV-1" target="YgNDyVswAlzfiliHHgwm-78">
          <mxGeometry relative="1" as="geometry">
            <mxPoint x="460" y="1444" as="sourcePoint" />
            <mxPoint x="280" y="1634" as="targetPoint" />
          </mxGeometry>
        </mxCell>
        <mxCell id="YgNDyVswAlzfiliHHgwm-75" value="Subscribe to:&lt;br&gt;pepper / payment" style="edgeLabel;html=1;align=center;verticalAlign=middle;resizable=0;points=[];" vertex="1" connectable="0" parent="YgNDyVswAlzfiliHHgwm-74">
          <mxGeometry x="-0.0488" y="1" relative="1" as="geometry">
            <mxPoint as="offset" />
          </mxGeometry>
        </mxCell>
        <mxCell id="YgNDyVswAlzfiliHHgwm-76" style="edgeStyle=orthogonalEdgeStyle;rounded=0;orthogonalLoop=1;jettySize=auto;html=1;" edge="1" parent="WIyWlLk6GJQsqaUBKTNV-1" target="YgNDyVswAlzfiliHHgwm-70">
          <mxGeometry relative="1" as="geometry">
            <mxPoint x="540" y="1444" as="sourcePoint" />
          </mxGeometry>
        </mxCell>
        <mxCell id="YgNDyVswAlzfiliHHgwm-77" value="call contract:&lt;br&gt;checkIotConfirmation" style="edgeLabel;html=1;align=center;verticalAlign=middle;resizable=0;points=[];" vertex="1" connectable="0" parent="YgNDyVswAlzfiliHHgwm-76">
          <mxGeometry x="0.0679" y="-2" relative="1" as="geometry">
            <mxPoint as="offset" />
          </mxGeometry>
        </mxCell>
        <mxCell id="YgNDyVswAlzfiliHHgwm-78" value="mqtt broker" style="image;html=1;image=img/lib/clip_art/networking/Print_Server_Wireless_128x128.png" vertex="1" parent="WIyWlLk6GJQsqaUBKTNV-1">
          <mxGeometry x="190" y="1584" width="80" height="80" as="geometry" />
        </mxCell>
        <mxCell id="YgNDyVswAlzfiliHHgwm-79" value="Internes Web3 Gateway" style="image;html=1;image=img/lib/clip_art/computers/Server_128x128.png" vertex="1" parent="WIyWlLk6GJQsqaUBKTNV-1">
          <mxGeometry x="460" y="1404" width="80" height="80" as="geometry" />
        </mxCell>
        <mxCell id="YgNDyVswAlzfiliHHgwm-80" value="-wie bekommt man Nachricht zwischen Iot device und dem web 3 gateway verschlÃ¼sselt ,damit man private Key mitschicken kann&amp;nbsp;" style="rounded=0;whiteSpace=wrap;html=1;" vertex="1" parent="WIyWlLk6GJQsqaUBKTNV-1">
          <mxGeometry x="1190" y="250" width="260" height="110" as="geometry" />
        </mxCell>
        <mxCell id="YgNDyVswAlzfiliHHgwm-81" value="- wie verifiziert man,dass das TatsÃ¤chliche Iot GerÃ¤t Nachricht geschickt hat ?" style="rounded=0;whiteSpace=wrap;html=1;" vertex="1" parent="WIyWlLk6GJQsqaUBKTNV-1">
          <mxGeometry x="870" y="230" width="200" height="150" as="geometry" />
        </mxCell>
        <mxCell id="YgNDyVswAlzfiliHHgwm-82" style="edgeStyle=orthogonalEdgeStyle;rounded=0;orthogonalLoop=1;jettySize=auto;html=1;entryX=-0.017;entryY=0.486;entryDx=0;entryDy=0;entryPerimeter=0;" edge="1" parent="WIyWlLk6GJQsqaUBKTNV-1" source="YgNDyVswAlzfiliHHgwm-81" target="YgNDyVswAlzfiliHHgwm-80">
          <mxGeometry relative="1" as="geometry" />
        </mxCell>
        <mxCell id="YgNDyVswAlzfiliHHgwm-83" value="contract" style="shape=cylinder3;whiteSpace=wrap;html=1;boundedLbl=1;backgroundOutline=1;size=15;" vertex="1" parent="WIyWlLk6GJQsqaUBKTNV-1">
          <mxGeometry x="540" y="1089" width="60" height="80" as="geometry" />
        </mxCell>
        <mxCell id="YgNDyVswAlzfiliHHgwm-85" style="edgeStyle=orthogonalEdgeStyle;rounded=0;orthogonalLoop=1;jettySize=auto;html=1;" edge="1" parent="WIyWlLk6GJQsqaUBKTNV-1" source="YgNDyVswAlzfiliHHgwm-84" target="YgNDyVswAlzfiliHHgwm-83">
          <mxGeometry relative="1" as="geometry">
            <Array as="points">
              <mxPoint x="260" y="1129" />
              <mxPoint x="260" y="1129" />
            </Array>
          </mxGeometry>
        </mxCell>
        <mxCell id="YgNDyVswAlzfiliHHgwm-86" value="call contract :&lt;div&gt;&lt;span style=&quot;font-size: 12px; text-align: left; background-color: rgb(251, 251, 251);&quot;&gt;sendFundsCredit()&lt;br&gt;&lt;/span&gt;to subscribe to device Action&lt;/div&gt;" style="edgeLabel;html=1;align=center;verticalAlign=middle;resizable=0;points=[];" vertex="1" connectable="0" parent="YgNDyVswAlzfiliHHgwm-85">
          <mxGeometry x="0.027" y="-5" relative="1" as="geometry">
            <mxPoint x="1" as="offset" />
          </mxGeometry>
        </mxCell>
        <mxCell id="YgNDyVswAlzfiliHHgwm-84" value="user" style="shape=umlActor;verticalLabelPosition=bottom;verticalAlign=top;html=1;outlineConnect=0;" vertex="1" parent="WIyWlLk6GJQsqaUBKTNV-1">
          <mxGeometry x="140" y="1089" width="30" height="60" as="geometry" />
        </mxCell>
        <mxCell id="YgNDyVswAlzfiliHHgwm-87" value="ist der Ablauf korrekt ,dass man erst balance abfragt -&amp;gt; weil dann kann z.B. nicht nach stunden und watt abgerechnet werden&amp;nbsp;" style="rounded=0;whiteSpace=wrap;html=1;" vertex="1" parent="WIyWlLk6GJQsqaUBKTNV-1">
          <mxGeometry x="870" y="420" width="200" height="130" as="geometry" />
        </mxCell>
      </root>
    </mxGraphModel>
  </diagram>
</mxfile>
